<svg width="58" height="20" viewBox="0 0 58 20" fill="none" xmlns="http://www.w3.org/2000/svg">
<g clip-path="url(#clip0_3_2)">
<mask id="mask0_3_2" style="mask-type:luminance" maskUnits="userSpaceOnUse" x="0" y="0" width="58" height="20">
<path d="M58 0H0V20H58V0Z" fill="white"/>
</mask>
<g mask="url(#mask0_3_2)">
<path d="M13.6523 14.2891H10.6553L7.88672 9.52539H5.70703V14.2891H3V1.10547H8.00977C9.07031 1.10547 9.97852 1.27246 10.7344 1.60645C11.4902 1.94043 12.0674 2.42383 12.4658 3.05664C12.8701 3.68359 13.0723 4.43652 13.0723 5.31543C13.0723 6.21777 12.8584 6.98828 12.4307 7.62695C12.0088 8.25977 11.4053 8.73438 10.6201 9.05078L13.6523 14.2891ZM5.70703 7.37207H7.80762C8.61035 7.37207 9.22559 7.20508 9.65332 6.87109C10.0869 6.53125 10.3037 6.04785 10.3037 5.4209C10.3037 4.79395 10.0869 4.31348 9.65332 3.97949C9.22559 3.63965 8.61035 3.46973 7.80762 3.46973H5.70703V7.37207Z" fill="#4FBC6E"/>
<path d="M16.3682 3.39941C16.0342 3.39941 15.7529 3.28223 15.5244 3.04785C15.2959 2.81348 15.1816 2.5293 15.1816 2.19531C15.1816 1.86133 15.2959 1.58008 15.5244 1.35156C15.7529 1.11719 16.0342 1 16.3682 1C16.708 1 16.9922 1.11719 17.2207 1.35156C17.4551 1.58008 17.5723 1.86133 17.5723 2.19531C17.5723 2.5293 17.4551 2.81348 17.2207 3.04785C16.9922 3.28223 16.708 3.39941 16.3682 3.39941ZM17.6338 14.2891H15.1113V5.5H17.6338V14.2891Z" fill="#4FBC6E"/>
<path d="M23.3994 14.3945C22.6084 14.3945 21.8994 14.1982 21.2725 13.8057C20.6455 13.4072 20.1533 12.8682 19.7959 12.1885C19.4385 11.5029 19.2598 10.7266 19.2598 9.85938C19.2598 8.98633 19.4385 8.20996 19.7959 7.53027C20.1533 6.85059 20.6455 6.31445 21.2725 5.92188C21.8994 5.52344 22.6113 5.32422 23.4082 5.32422C24.0293 5.32422 24.5977 5.44727 25.1133 5.69336C25.6348 5.93359 26.083 6.26758 26.458 6.69531L26.5723 5.5H28.7871V14.043C28.7871 15.0156 28.5732 15.8623 28.1455 16.583C27.7236 17.3096 27.126 17.8691 26.3525 18.2617C25.5791 18.6602 24.6738 18.8594 23.6367 18.8594C22.1953 18.8594 20.8887 18.4082 19.7168 17.5059L20.7363 15.4492C21.5156 16.2168 22.4238 16.6006 23.4609 16.6006C24.0176 16.6006 24.5039 16.4893 24.9199 16.2666C25.3418 16.0439 25.6699 15.7334 25.9043 15.335C26.1445 14.9365 26.2646 14.4736 26.2646 13.9463V13.2256C25.9014 13.5889 25.4766 13.876 24.9902 14.0869C24.5039 14.292 23.9736 14.3945 23.3994 14.3945ZM24.0498 12.1445C24.46 12.1445 24.832 12.0566 25.166 11.8809C25.5 11.6992 25.7666 11.4502 25.9658 11.1338C26.165 10.8115 26.2646 10.4482 26.2646 10.0439V9.66602C26.2646 9.26172 26.1621 8.90137 25.957 8.58496C25.7578 8.26855 25.4912 8.02246 25.1572 7.84668C24.8291 7.66504 24.46 7.57422 24.0498 7.57422C23.6279 7.57422 23.25 7.67383 22.916 7.87305C22.582 8.07227 22.3184 8.34473 22.125 8.69043C21.9316 9.03027 21.835 9.41992 21.835 9.85938C21.835 10.2988 21.9316 10.6914 22.125 11.0371C22.3184 11.3828 22.582 11.6553 22.916 11.8545C23.25 12.0479 23.6279 12.1445 24.0498 12.1445Z" fill="#4FBC6E"/>
<path d="M45.1436 14.2891H42.6211V9.87695C42.6211 9.14453 42.4775 8.5791 42.1904 8.18066C41.9033 7.78223 41.4961 7.58301 40.9688 7.58301C40.4297 7.58301 40.0078 7.78516 39.7031 8.18945C39.4043 8.59375 39.2549 9.15625 39.2549 9.87695V14.2891H36.7324V9.87695C36.7324 9.14453 36.5889 8.5791 36.3018 8.18066C36.0146 7.78223 35.6045 7.58301 35.0713 7.58301C34.5381 7.58301 34.1191 7.78516 33.8145 8.18945C33.5156 8.59375 33.3662 9.15625 33.3662 9.87695V14.2891H30.8438V5.5H32.8564L32.9443 6.9502C33.2373 6.41699 33.6299 6.0127 34.1221 5.7373C34.6201 5.46191 35.1973 5.32422 35.8535 5.32422C36.5391 5.32422 37.1309 5.46777 37.6289 5.75488C38.127 6.04199 38.5107 6.45508 38.7803 6.99414C39.0791 6.44922 39.4746 6.03613 39.9668 5.75488C40.4648 5.46777 41.0537 5.32422 41.7334 5.32422C42.8057 5.32422 43.6406 5.66699 44.2383 6.35254C44.8418 7.03223 45.1436 7.98438 45.1436 9.20898V14.2891Z" fill="white"/>
<path d="M54.9609 14.2891H52.7637L52.6318 13.2432C52.3096 13.6299 51.9111 13.9316 51.4365 14.1484C50.9619 14.3594 50.4404 14.4648 49.8721 14.4648C49.2568 14.4648 48.709 14.3477 48.2285 14.1133C47.748 13.873 47.3701 13.5449 47.0947 13.1289C46.8193 12.707 46.6816 12.2295 46.6816 11.6963C46.6816 11.1338 46.8311 10.6387 47.1299 10.2109C47.4287 9.7832 47.8389 9.44922 48.3604 9.20898C48.8877 8.96289 49.4854 8.83984 50.1533 8.83984C50.5459 8.83984 50.9385 8.88379 51.3311 8.97168C51.7295 9.05957 52.0986 9.18262 52.4385 9.34082V9.1123C52.4385 8.76074 52.3389 8.45898 52.1396 8.20703C51.9463 7.94922 51.6768 7.75 51.3311 7.60938C50.9912 7.46875 50.6104 7.39844 50.1885 7.39844C49.7842 7.39844 49.3828 7.46289 48.9844 7.5918C48.5918 7.7207 48.2285 7.91406 47.8945 8.17188L47.209 6.24707C47.8008 5.94238 48.3984 5.71387 49.002 5.56152C49.6113 5.40332 50.2002 5.32422 50.7686 5.32422C51.624 5.32422 52.3652 5.49414 52.9922 5.83398C53.6191 6.16797 54.1025 6.64258 54.4424 7.25781C54.7881 7.86719 54.9609 8.59082 54.9609 9.42871V14.2891ZM50.4258 12.5225C50.7598 12.5225 51.0791 12.4492 51.3838 12.3027C51.6885 12.1562 51.9346 11.957 52.1221 11.7051C52.3154 11.4531 52.418 11.1748 52.4297 10.8701V10.8086C52.1719 10.6328 51.8848 10.498 51.5684 10.4043C51.2578 10.3047 50.9414 10.2549 50.6191 10.2549C50.1387 10.2549 49.7461 10.3604 49.4414 10.5713C49.1367 10.7822 48.9844 11.0547 48.9844 11.3887C48.9844 11.6055 49.0459 11.8018 49.1689 11.9775C49.2979 12.1475 49.4707 12.2822 49.6875 12.3818C49.9043 12.4756 50.1504 12.5225 50.4258 12.5225Z" fill="white"/>
</g>
</g>
<defs>
<clipPath id="clip0_3_2">
<rect width="58" height="20" fill="white"/>
</clipPath>
</defs>
</svg>
